HIERARCHY
ROOT Hips
{
	OFFSET 0.000000 83.214638 0.000000
	CHANNELS 6 Xposition Yposition Zposition Xrotation Yrotation Zrotation
	JOINT Pelvis
	{
		OFFSET 0.000000 0.000000 0.000000
		CHANNELS 3 Xrotation Yrotation Zrotation
		JOINT LeftUpLeg
		{
			OFFSET 8.479700 -4.795502 -0.379100
			CHANNELS 3 Xrotation Yrotation Zrotation
			JOINT LeftLeg
			{
				OFFSET 0.024144 -32.555107 0.112900
				CHANNELS 3 Xrotation Yrotation Zrotation
				JOINT LeftFoot
				{
					OFFSET -0.024144 -32.638630 -3.012600
					CHANNELS 3 Xrotation Yrotation Zrotation
					JOINT LeftToeBase
					{
						OFFSET 0.970200 -13.225400 11.864200
						CHANNELS 3 Xrotation Yrotation Zrotation
						End Site
						{
							OFFSET 0.000000 12.319262 0.000000
						}
					}
					JOINT LFootTongue
					{
						OFFSET 1.142400 -1.059800 6.665200
						CHANNELS 3 Xrotation Yrotation Zrotation
						End Site
						{
							OFFSET 0.000000 12.319262 0.000000
						}
					}
				}
				JOINT LeftPantLeg
				{
					OFFSET 0.918482 -16.533964 -2.284700
					CHANNELS 3 Xrotation Yrotation Zrotation
					End Site
					{
						OFFSET 0.350399 24.744368 0.000000
					}
				}
			}
		}
		JOINT RightUpLeg
		{
			OFFSET -8.479700 -4.795502 -0.379100
			CHANNELS 3 Xrotation Yrotation Zrotation
			JOINT RightLeg
			{
				OFFSET -0.023144 -32.555092 0.112900
				CHANNELS 3 Xrotation Yrotation Zrotation
				JOINT RightFoot
				{
					OFFSET 0.023144 -32.638641 -3.012700
					CHANNELS 3 Xrotation Yrotation Zrotation
					JOINT RightToeBase
					{
						OFFSET -0.970200 -13.225400 11.864200
						CHANNELS 3 Xrotation Yrotation Zrotation
						End Site
						{
							OFFSET 0.000000 12.319244 0.000000
						}
					}
					JOINT RFootTongue
					{
						OFFSET -1.142200 -1.059800 6.665200
						CHANNELS 3 Xrotation Yrotation Zrotation
						End Site
						{
							OFFSET 0.000000 12.319243 0.000000
						}
					}
				}
				JOINT RightPantLeg
				{
					OFFSET -0.919482 -16.533978 -2.284800
					CHANNELS 3 Xrotation Yrotation Zrotation
					End Site
					{
						OFFSET -0.350400 24.744419 0.000000
					}
				}
			}
		}
	}
	JOINT Spine
	{
		OFFSET 0.000000 7.722000 1.166200
		CHANNELS 3 Xrotation Yrotation Zrotation
		JOINT Spine1
		{
			OFFSET 0.000000 12.024101 0.248800
			CHANNELS 3 Xrotation Yrotation Zrotation
			JOINT Spine2
			{
				OFFSET 0.000000 11.502998 -0.491200
				CHANNELS 3 Xrotation Yrotation Zrotation
				JOINT Neck
				{
					OFFSET 0.000000 18.430702 -3.123100
					CHANNELS 3 Xrotation Yrotation Zrotation
					JOINT Head
					{
						OFFSET 0.000000 9.051102 1.034000
						CHANNELS 3 Xrotation Yrotation Zrotation
						JOINT HairB
						{
							OFFSET 0.208400 24.786102 24.822300
							CHANNELS 3 Xrotation Yrotation Zrotation
							End Site
							{
								OFFSET 0.000000 32.263779 0.000000
							}
						}
						JOINT HairA
						{
							OFFSET -7.081100 24.428299 23.196600
							CHANNELS 3 Xrotation Yrotation Zrotation
							End Site
							{
								OFFSET 0.000000 32.263779 0.000000
							}
						}
						JOINT Hat
						{
							OFFSET 16.728800 15.048294 -15.439601
							CHANNELS 3 Xrotation Yrotation Zrotation
							End Site
							{
								OFFSET 0.000000 32.263779 0.000000
							}
						}
					}
				}
				JOINT LeftShoulder
				{
					OFFSET 6.197800 13.665199 -4.064700
					CHANNELS 3 Xrotation Yrotation Zrotation
					JOINT LeftArm
					{
						OFFSET 7.778100 -0.187103 -1.709300
						CHANNELS 3 Xrotation Yrotation Zrotation
						JOINT LeftForeArm
						{
							OFFSET 22.049376 0.000000 0.000000
							CHANNELS 3 Xrotation Yrotation Zrotation
							JOINT LeftHand
							{
								OFFSET 23.009392 0.000000 0.000000
								CHANNELS 3 Xrotation Yrotation Zrotation
								JOINT LeftHandThumb1
								{
									OFFSET 3.507191 -2.063065 3.133727
									CHANNELS 3 Xrotation Yrotation Zrotation
									JOINT LeftHandThumb2
									{
										OFFSET 3.101337 -1.790558 1.790558
										CHANNELS 3 Xrotation Yrotation Zrotation
										JOINT LeftHandThumb3
										{
											OFFSET 3.058640 -1.765907 1.765906
											CHANNELS 3 Xrotation Yrotation Zrotation
											End Site
											{
												OFFSET -0.415260 3.926476 -0.049563
											}
										}
									}
								}
								JOINT LeftHandIndex1
								{
									OFFSET 11.334419 -0.901459 3.706815
									CHANNELS 3 Xrotation Yrotation Zrotation
									JOINT LeftHandIndex2
									{
										OFFSET 3.283112 0.000000 0.000000
										CHANNELS 3 Xrotation Yrotation Zrotation
										JOINT LeftHandIndex3
										{
											OFFSET 3.323853 0.000000 0.000000
											CHANNELS 3 Xrotation Yrotation Zrotation
											End Site
											{
												OFFSET -1.135597 3.097809 0.402452
											}
										}
									}
								}
								JOINT LeftHandMiddle1
								{
									OFFSET 11.335861 0.000000 0.000000
									CHANNELS 3 Xrotation Yrotation Zrotation
									JOINT LeftHandMiddle2
									{
										OFFSET 3.410492 0.000000 0.000000
										CHANNELS 3 Xrotation Yrotation Zrotation
										JOINT LeftHandMiddle3
										{
											OFFSET 3.312172 0.000000 0.000000
											CHANNELS 3 Xrotation Yrotation Zrotation
											End Site
											{
												OFFSET -1.150200 3.080154 0.400270
											}
										}
									}
								}
								JOINT LeftHandRing1
								{
									OFFSET 11.514786 -0.013176 -3.003090
									CHANNELS 3 Xrotation Yrotation Zrotation
									JOINT LeftHandRing2
									{
										OFFSET 3.053307 0.000000 0.000000
										CHANNELS 3 Xrotation Yrotation Zrotation
										JOINT LeftHandRing3
										{
											OFFSET 3.295807 0.000000 0.000000
											CHANNELS 3 Xrotation Yrotation Zrotation
											End Site
											{
												OFFSET -1.281006 3.013344 0.375733
											}
										}
									}
								}
								JOINT LeftHandPinky1
								{
									OFFSET 10.518692 -0.960396 -5.730441
									CHANNELS 3 Xrotation Yrotation Zrotation
									JOINT LeftHandPinky2
									{
										OFFSET 2.861649 0.000000 0.000000
										CHANNELS 3 Xrotation Yrotation Zrotation
										JOINT LeftHandPinky3
										{
											OFFSET 2.863380 0.000000 0.000000
											CHANNELS 3 Xrotation Yrotation Zrotation
											End Site
											{
												OFFSET -0.843597 2.711159 0.369971
											}
										}
									}
								}
							}
							JOINT LSleeve
							{
								OFFSET 6.676277 -0.344902 -1.011730
								CHANNELS 3 Xrotation Yrotation Zrotation
								End Site
								{
									OFFSET 0.000000 14.885353 0.000000
								}
							}
						}
					}
				}
				JOINT RightShoulder
				{
					OFFSET -6.197800 13.665199 -4.064700
					CHANNELS 3 Xrotation Yrotation Zrotation
					JOINT RightArm
					{
						OFFSET -7.778100 -0.187103 -1.709300
						CHANNELS 3 Xrotation Yrotation Zrotation
						JOINT RightForeArm
						{
							OFFSET -22.049376 0.000000 0.000000
							CHANNELS 3 Xrotation Yrotation Zrotation
							JOINT RightHand
							{
								OFFSET -23.009392 0.000000 0.000000
								CHANNELS 3 Xrotation Yrotation Zrotation
								JOINT RightHandThumb1
								{
									OFFSET -3.507191 -2.063065 3.133727
									CHANNELS 3 Xrotation Yrotation Zrotation
									JOINT RightHandThumb2
									{
										OFFSET -3.101337 -1.790558 1.790558
										CHANNELS 3 Xrotation Yrotation Zrotation
										JOINT RightHandThumb3
										{
											OFFSET -3.058640 -1.765907 1.765906
											CHANNELS 3 Xrotation Yrotation Zrotation
											End Site
											{
												OFFSET 0.415260 3.926476 -0.049563
											}
										}
									}
								}
								JOINT RightHandIndex1
								{
									OFFSET -11.334419 -0.901459 3.706815
									CHANNELS 3 Xrotation Yrotation Zrotation
									JOINT RightHandIndex2
									{
										OFFSET -3.283112 0.000000 0.000000
										CHANNELS 3 Xrotation Yrotation Zrotation
										JOINT RightHandIndex3
										{
											OFFSET -3.323853 0.000000 0.000000
											CHANNELS 3 Xrotation Yrotation Zrotation
											End Site
											{
												OFFSET 1.135597 3.097809 0.402452
											}
										}
									}
								}
								JOINT RightHandMiddle1
								{
									OFFSET -11.335861 0.000000 0.000000
									CHANNELS 3 Xrotation Yrotation Zrotation
									JOINT RightHandMiddle2
									{
										OFFSET -3.410492 0.000000 0.000000
										CHANNELS 3 Xrotation Yrotation Zrotation
										JOINT RightHandMiddle3
										{
											OFFSET -3.312172 0.000000 0.000000
											CHANNELS 3 Xrotation Yrotation Zrotation
											End Site
											{
												OFFSET 1.150200 3.080154 0.400270
											}
										}
									}
								}
								JOINT RightHandRing1
								{
									OFFSET -11.514786 -0.013176 -3.003090
									CHANNELS 3 Xrotation Yrotation Zrotation
									JOINT RightHandRing2
									{
										OFFSET -3.053307 0.000000 0.000000
										CHANNELS 3 Xrotation Yrotation Zrotation
										JOINT RightHandRing3
										{
											OFFSET -3.295807 0.000000 0.000000
											CHANNELS 3 Xrotation Yrotation Zrotation
											End Site
											{
												OFFSET 1.281006 3.013344 0.375733
											}
										}
									}
								}
								JOINT RightHandPinky1
								{
									OFFSET -10.518692 -0.960396 -5.730441
									CHANNELS 3 Xrotation Yrotation Zrotation
									JOINT RightHandPinky2
									{
										OFFSET -2.861649 0.000000 0.000000
										CHANNELS 3 Xrotation Yrotation Zrotation
										JOINT RightHandPinky3
										{
											OFFSET -2.863380 0.000000 0.000000
											CHANNELS 3 Xrotation Yrotation Zrotation
											End Site
											{
												OFFSET 0.843597 2.711159 0.369971
											}
										}
									}
								}
							}
							JOINT RSleeve
							{
								OFFSET -6.676277 -0.344902 -1.011730
								CHANNELS 3 Xrotation Yrotation Zrotation
								End Site
								{
									OFFSET 0.000000 14.885353 0.000000
								}
							}
						}
					}
				}
				JOINT Backpack
				{
					OFFSET 0.000000 -2.471497 36.677502
					CHANNELS 3 Xrotation Yrotation Zrotation
					End Site
					{
						OFFSET 0.000000 20.427315 0.000000
					}
				}
				JOINT Hood
				{
					OFFSET 0.000000 18.754097 -10.431000
					CHANNELS 3 Xrotation Yrotation Zrotation
					JOINT Hood1
					{
						OFFSET 0.000000 -5.011002 -7.685901
						CHANNELS 3 Xrotation Yrotation Zrotation
						End Site
						{
							OFFSET 0.000000 9.175140 0.000000
						}
					}
				}
				JOINT LHoodieString
				{
					OFFSET 5.250500 16.397697 3.089900
					CHANNELS 3 Xrotation Yrotation Zrotation
					JOINT LHoodieString1
					{
						OFFSET 0.257700 -6.364304 3.694600
						CHANNELS 3 Xrotation Yrotation Zrotation
						JOINT LHoodieString2
						{
							OFFSET 0.000000 -9.643799 2.679100
							CHANNELS 3 Xrotation Yrotation Zrotation
							End Site
							{
								OFFSET 0.000000 10.009018 0.000000
							}
						}
					}
				}
				JOINT RHoodieString
				{
					OFFSET -5.250500 16.397697 3.089900
					CHANNELS 3 Xrotation Yrotation Zrotation
					JOINT RHoodieString1
					{
						OFFSET -0.257700 -6.364304 3.694600
						CHANNELS 3 Xrotation Yrotation Zrotation
						JOINT RHoodieString2
						{
							OFFSET 0.000000 -9.643799 2.679100
							CHANNELS 3 Xrotation Yrotation Zrotation
							End Site
							{
								OFFSET 0.000000 10.009018 0.000000
							}
						}
					}
				}
			}
			JOINT LBackpack_Strap
			{
				OFFSET 15.223200 -7.719803 -6.610900
				CHANNELS 3 Xrotation Yrotation Zrotation
				End Site
				{
					OFFSET 0.000000 16.040596 0.000000
				}
			}
			JOINT RBackpack_Strap
			{
				OFFSET -15.223000 -7.719803 -6.610900
				CHANNELS 3 Xrotation Yrotation Zrotation
				End Site
				{
					OFFSET 0.000000 16.040596 0.000000
				}
			}
		}
	}
	JOINT BoyFacialAnim_Joint
	{
		OFFSET 1.000000 -82.208099 -1.550900
		CHANNELS 3 Xrotation Yrotation Zrotation
		End Site
		{
			OFFSET 0.000000 30.012791 0.000000
		}
	}
}
MOTION
Frames: 4
Frame Time: 0.033333
11.037023 29.658066 24.373831 -1.213789 -4.551697 -4.400643 -0.000000 0.000000 -0.000000 -104.229602 24.988691 20.571736 158.795314 38.497098 2.960240 -40.556202 1.879458 -2.011486 -0.000000 0.000002 0.000000 -0.000000 0.000002 -0.000000 -0.000000 0.000000 -0.000003 -119.198945 -4.894077 -1.315589 143.681635 -5.350586 0.926567 -23.432303 0.157497 0.570881 0.000000 -0.000000 0.000000 0.000000 -0.000000 0.000000 0.000001 0.000001 -0.000000 12.106159 -0.547216 1.312929 24.217976 -0.803604 2.361393 24.217983 -0.803602 2.361395 -17.715147 2.267313 -5.332771 -22.713675 1.273135 -1.591101 0.000001 0.000000 0.000000 0.000001 0.000000 0.000000 0.000001 0.000000 0.000000 3.354766 -24.283059 5.101350 -71.575581 -10.945510 -50.799788 81.469766 -28.906962 73.147535 -5.310315 11.304384 -7.943494 18.906602 -10.775053 10.592998 -11.046220 9.733311 -5.539214 0.000001 0.000002 0.000001 0.247358 2.427570 17.323928 0.518427 3.033397 -25.279213 0.000000 -0.000001 -0.000004 0.759145 5.082929 22.167155 3.734635 5.832873 -73.827993 -0.000000 0.000001 -0.000005 2.972039 19.407286 -16.896421 5.344497 5.202232 -89.637497 -0.000000 -0.000000 -0.000002 2.466129 18.958708 15.754168 0.155278 2.215089 -25.658579 -0.000000 0.000000 0.000002 -0.000000 -0.000000 0.000000 2.116713 24.334328 1.502490 -71.361707 45.821782 40.355732 48.959001 24.836511 -43.416026 -3.460112 -1.567194 26.862574 18.905077 10.772224 -10.597009 -11.046333 -9.733275 5.539051 -0.000001 -0.000002 -0.000001 0.206531 -3.114512 -9.545097 0.486311 -2.964385 24.438376 -0.000001 -0.000001 0.000003 0.553793 -6.340155 -9.618190 1.594545 -4.619564 46.489816 -0.000000 0.000000 -0.000000 2.749021 -18.666137 10.343502 4.681895 -5.189162 81.823050 0.000001 0.000000 -0.000001 2.464067 -18.958005 -15.761683 0.155361 -2.215440 25.658548 -0.000001 -0.000000 -0.000002 0.000000 -0.000000 0.000000 -0.000001 0.000000 -0.000001 -0.000001 0.000000 -0.000001 -0.000001 0.000000 -0.000001 -0.000001 0.000000 -0.000001 -0.000001 0.000000 -0.000001 0.000000 -0.000000 -0.000001 -0.000001 0.000000 -0.000001 -0.000001 0.000000 -0.000001 0.000000 -0.000000 -0.000001 0.000002 0.000000 0.000000 0.000002 0.000000 0.000000 -0.000000 0.000000 -0.000000 
11.025427 29.652588 24.397951 -1.171027 -4.519144 -4.423020 0.000000 0.000000 0.000000 -104.228735 24.932412 20.569963 158.837989 38.475699 2.938201 -40.605133 1.871230 -1.988668 0.000002 -0.000002 0.000002 0.000002 -0.000002 0.000001 0.000000 0.000002 -0.000002 -119.203795 -4.902136 -1.351386 143.718778 -5.358503 0.948495 -23.504141 0.155142 0.560553 -0.000000 -0.000000 -0.000000 -0.000000 -0.000000 -0.000000 -0.000000 0.000001 -0.000000 12.091594 -0.551015 1.302023 24.188862 -0.817308 2.338518 24.188849 -0.817306 2.338518 -17.748788 2.262363 -5.324235 -22.706209 1.157812 -1.469451 0.000002 0.000000 -0.000000 0.000002 0.000000 -0.000000 0.000002 0.000000 -0.000000 3.370379 -24.280858 5.185401 -71.723823 -10.924736 -50.766286 81.493610 -28.823829 73.023595 -5.302626 11.450202 -8.210106 18.906601 -10.775031 10.592995 -11.046220 9.733293 -5.539211 -0.000001 0.000003 0.000000 0.189414 2.740170 13.750301 0.335047 2.594813 -20.053242 -0.000000 0.000001 -0.000003 0.757748 5.189824 21.383051 2.986725 5.557311 -65.050305 0.000002 -0.000000 -0.000003 2.934214 19.265602 -15.617315 5.688659 5.190742 -93.917826 -0.000000 0.000000 -0.000000 2.466122 18.958727 15.754173 0.155273 2.215055 -25.658586 -0.000001 0.000001 -0.000000 -0.000001 -0.000002 -0.000000 2.122838 24.336200 1.470610 -71.371775 46.010487 40.222567 48.595737 25.163020 -43.187245 -3.364312 -1.374364 27.886798 18.905091 10.772233 -10.597003 -11.046327 -9.733274 5.539047 -0.000000 0.000001 0.000001 0.268366 -3.354010 -6.819689 0.887671 -3.687533 33.541181 -0.000001 0.000000 0.000005 0.614373 -7.686075 4.470386 0.652667 -3.419569 29.643950 0.000002 0.000000 -0.000000 2.622167 -18.074786 4.722654 3.220359 -4.802660 63.836054 -0.000000 -0.000001 0.000002 2.464072 -18.958001 -15.761662 0.155363 -2.215427 25.658555 0.000000 0.000000 -0.000001 -0.000000 0.000000 0.000000 -0.000002 -0.000000 0.000000 -0.000002 -0.000000 0.000000 -0.000002 -0.000000 0.000000 -0.000002 -0.000000 0.000000 -0.000002 -0.000000 0.000000 0.000001 0.000001 -0.000000 -0.000002 -0.000000 0.000000 -0.000002 -0.000000 0.000000 0.000001 0.000001 -0.000000 0.000000 -0.000000 -0.000000 0.000000 -0.000000 -0.000000 0.000000 0.000000 0.000000 
11.016277 29.649849 24.421289 -1.111118 -4.497671 -4.427383 -0.000000 -0.000000 0.000000 -104.236548 24.879323 20.562040 158.872331 38.442600 2.913727 -40.638236 1.869300 -1.981805 -0.000000 -0.000000 0.000001 -0.000000 -0.000000 0.000001 0.000000 -0.000000 0.000001 -119.227987 -4.893125 -1.387827 143.751085 -5.346202 0.970153 -23.571698 0.153131 0.543340 -0.000000 -0.000000 -0.000000 -0.000000 -0.000000 -0.000000 -0.000002 -0.000000 0.000000 12.076545 -0.556384 1.286887 24.158797 -0.834747 2.307690 24.158813 -0.834749 2.307690 -17.780171 2.280156 -5.334940 -22.747253 1.075627 -1.350555 -0.000001 -0.000000 -0.000000 -0.000001 -0.000000 -0.000000 -0.000001 -0.000000 -0.000000 3.387526 -24.278426 5.277730 -71.907637 -10.974413 -50.705221 81.545424 -28.691231 72.894340 -5.269677 11.569985 -8.760923 18.906601 -10.775023 10.592998 -11.046220 9.733280 -5.539218 0.000000 -0.000002 -0.000000 0.226343 3.057998 10.216182 0.623717 3.243619 -27.863820 -0.000000 -0.000002 -0.000002 0.530616 6.560532 7.254679 1.578281 4.604060 -46.251473 0.000001 -0.000001 0.000000 2.726354 18.592699 -9.726136 4.289915 5.127180 -77.057368 -0.000000 0.000000 -0.000002 2.466124 18.958725 15.754171 0.155278 2.215083 -25.658581 0.000000 0.000000 -0.000000 -0.000000 0.000002 -0.000000 2.130392 24.338469 1.431341 -71.257294 46.295210 39.978183 48.246124 25.543775 -43.007184 -3.266614 -1.139440 28.707773 18.905094 10.772218 -10.597007 -11.046327 -9.733299 5.539048 0.000001 0.000000 0.000000 0.315991 -3.516447 -4.918508 1.215894 -4.128975 39.595939 -0.000001 0.000000 0.000002 0.844964 -8.550436 14.014776 0.232016 -2.465198 18.154127 0.000001 0.000000 -0.000000 2.577275 -17.712583 0.917895 2.320830 -4.300886 51.795428 -0.000001 0.000000 0.000002 2.464073 -18.958001 -15.761664 0.155363 -2.215447 25.658538 -0.000000 0.000000 -0.000001 -0.000001 0.000001 0.000000 -0.000002 -0.000001 0.000001 -0.000002 -0.000001 0.000001 -0.000002 -0.000001 0.000001 -0.000002 -0.000001 0.000001 -0.000002 -0.000001 0.000000 -0.000001 -0.000000 0.000000 -0.000002 -0.000001 0.000001 -0.000002 -0.000001 0.000000 -0.000001 -0.000000 0.000000 0.000003 -0.000000 0.000000 0.000003 -0.000000 0.000000 -0.000000 -0.000000 0.000000 
11.010317 29.648651 24.441439 -1.053112 -4.486813 -4.424614 0.000000 0.000000 0.000000 -104.235503 24.824801 20.538036 158.901496 38.404600 2.886697 -40.658620 1.875704 -1.994210 -0.000001 -0.000001 0.000000 -0.000001 -0.000001 -0.000000 0.000001 0.000002 -0.000003 -119.254898 -4.869699 -1.411695 143.777039 -5.320366 0.992297 -23.629581 0.148746 0.531985 -0.000000 -0.000000 0.000000 -0.000000 -0.000000 0.000000 -0.000001 -0.000001 -0.000000 12.067228 -0.562238 1.272076 24.140209 -0.851969 2.278260 24.140195 -0.851966 2.278257 -17.802569 2.321059 -5.365458 -22.829808 1.037001 -1.246262 0.000001 0.000000 0.000000 0.000001 0.000000 0.000000 0.000001 0.000000 0.000000 3.405712 -24.275848 5.375702 -72.109879 -11.109421 -50.622586 81.538573 -28.597761 72.714679 -5.228119 11.617752 -9.285349 18.906611 -10.775039 10.592998 -11.046214 9.733307 -5.539211 0.000001 0.000001 0.000000 0.281770 3.366694 6.680262 0.998264 3.847152 -35.683002 -0.000002 0.000002 0.000000 0.656340 7.910812 -6.916318 0.559715 3.248451 -27.507113 0.000002 -0.000001 0.000000 2.609217 17.987303 -3.855092 2.941086 4.670309 -60.209183 -0.000000 0.000001 -0.000002 2.466123 18.958729 15.754173 0.155280 2.215081 -25.658589 -0.000001 0.000001 -0.000002 -0.000000 0.000000 -0.000000 2.146289 24.343071 1.348465 -71.107569 46.606284 39.685885 48.010602 25.814876 -42.893772 -3.191029 -0.939960 29.166144 18.905081 10.772219 -10.597007 -11.046323 -9.733274 5.539048 0.000000 -0.000001 -0.000000 0.341606 -3.562296 -4.384950 1.318591 -4.249030 41.334833 -0.000000 -0.000000 0.000005 0.974696 -8.867032 17.689099 0.111768 -2.030554 13.194110 0.000002 0.000001 -0.000002 2.568429 -17.580811 -0.587045 2.038569 -4.090626 47.736622 -0.000001 0.000001 0.000006 2.464064 -18.958016 -15.761667 0.155358 -2.215445 25.658546 -0.000001 0.000000 -0.000005 -0.000000 -0.000001 -0.000000 0.000000 0.000000 -0.000000 0.000000 0.000000 -0.000000 0.000000 0.000000 -0.000000 0.000000 0.000000 -0.000000 0.000000 0.000000 -0.000000 0.000002 0.000000 -0.000000 0.000000 0.000000 -0.000000 0.000000 0.000000 -0.000000 0.000002 0.000000 -0.000000 0.000001 0.000000 -0.000000 0.000001 0.000000 -0.000000 0.000000 0.000000 0.000000 
